<svg xmlns="http://www.w3.org/2000/svg" viewBox="0 2000 600 210"><path fill="#FFF" d="M148.2 2035.3c-32.5 78.3-44.1 120.4-41 126.1-5.5 0-20.7-8.2-20.7-14 0-6.6 4.1-21.1 9.9-38.1-12.1 1.4-28.9 4.1-45.1 6.6-18.2 24.6-31.4 45.7-28.6 49.8-8.6-1.9-18.2-11-18.2-16.1 0-3.9 7.1-14.7 18.2-29.2-8.6 1.1-15.2 1.9-17.6 1.9-2.2 0-6.1-14.7-5-21.6 1.1 2.2 18.2 1.6 38.2 0 34.6-43 85-97.5 92.2-97.5 6.4.1 18.5 25.8 17.7 32.1zm-83.7 62.9c16.2-1.6 30.9-3.3 37.5-4.1 10.7-29.2 23.9-61.3 28.9-72.5-8.5 5.7-39.7 41.8-66.4 76.6zM129 2137.1c0-44.1 41.8-137.1 50.9-137.1h.3c5.2.5 23.7 16.4 23.9 28.5.3 9.3-31.1 64-51.4 82.6-2.5 9.3-4.4 18.9-6.1 27.9 16.2-12.9 41-40.2 49.3-51.2 4.7 12-44.1 70.6-51.4 71.9v.3c-4.8.1-15.5-15.3-15.5-22.9zm30-47.3c19.5-32.6 37.5-71.7 30-71.7-7.5 12.2-20.2 40.2-30 71.7zM438.6 2134.1c11.3-12.9 25.6-35.6 29.1-45.2 9.9 2.5-21.2 66.2-31.4 66.2-6.3 0-17.9-13.4-17.9-19.1 0-4.1.3-9.3 1.1-14.7-6.9 18.3-16.2 38.6-22.8 38.6-3.6 0-14.8-4.4-17.3-15.6-5.2-22.5 17.9-102.4 41.8-95.8 6.1 1.6 11.8 5.5 16.8 9.6 2.5-6 5-9.9 6.3-9.9 6.6 0 17.9 5.5 20.1 8.7-4.9 7.7-19.8 39.1-25.8 77.2zm-4.7-65.9c-4.1-4.1-7.1-3.5-10.2-.5-12.9 13.4-28.4 65.2-27 72.8 1.9 0 16.8-25.5 31.9-56.9 1.7-5.6 3.7-10.8 5.3-15.4z"/><path fill="#FFF" d="M288.3 2193.8c11-61.6 40.5-144.5 41.8-144.7 6.9-.9 19.8 1.4 21.8 3.5-2.7 1.1-8.8 15.3-15.4 34.5 10.2-22.2 20.1-37.2 25.9-37.2 3.6 0 15.9 9.9 17.1 15.6 1.9 9.6-2.2 28.5-9.1 46.6 10.7-7.6 20.1-15.9 25.3-23 3.9 11.7-15.7 30.1-35 43.8-8.8 15.6-19.5 26.8-29.5 24.1-5.7-1.4-10.5-4.9-13.8-9-7.1 25.7-12.3 49-12.3 58.8-3 .1-18.1-5.7-16.8-13zm34.5-61.1l3 4.1c3.6-1.4 8-3.3 12.3-5.5 12.1-18.6 23.9-59.7 22.8-66.5-2.3 0-21.6 25.5-38.1 67.9z"/><path fill="#FFF" d="M287.1 2134.1c11.3-12.9 25.6-35.6 29.1-45.2 9.9 2.5-21.2 66.2-31.4 66.2-6.3 0-17.9-13.4-17.9-19.1 0-4.1.3-9.3 1.1-14.7-6.9 18.3-16.2 38.6-22.8 38.6-3.6 0-14.8-4.4-17.3-15.6-5.2-22.5 17.9-102.4 41.8-95.8 6.1 1.6 11.8 5.5 16.8 9.6 2.5-6 5-9.9 6.3-9.9 6.6 0 17.9 5.5 20.1 8.7-4.8 7.7-19.7 39.1-25.8 77.2zm-4.6-65.9c-4.1-4.1-7.1-3.5-10.2-.5-12.9 13.4-28.4 65.2-27 72.8 1.9 0 16.8-25.5 31.9-56.9 1.7-5.6 3.6-10.8 5.3-15.4zM510.8 2059.4c5.5-.9 12.3 1.4 14.1 9.9 10.2-1.9 27-6.3 36.1-11.2 0 0-1.9 5.2-10.5 12.3-9.1 7.1-18.7 11.2-27 13.4-3.9 17.5-16.2 38.3-31.6 38.3-1.1 0-2.2 0-3.3-.3-4.1 2.2-6.6 4.4-7.5 5.5 24.3 13.1 42.1 27.1 37.7 40-4.4 11.7-27.3 33.9-46.8 33.9-22.5 0-33.3-19.7-31.1-33.1 1.1-10.6 18.7-20.2 31.9-22.2-7.5-5.2-22.3-18.9 0-29 .5-.3 1.4-.3 2.5-.5-5-3.3-9.3-7.6-11.3-12.6-5.2-21.9 13.5-55.8 33-55.8 1.7-.1 11.9 7 13.8 11.4zm-29.4 91.7c-17.6 5.5-25.9 20.5-12.3 28.7 10.2 5.7 24.3 1.1 27.3-3.5 2.1-3.9.1-15.1-15-25.2zm27.5-66c-3-.5-5-1.6-5.7-3.3-1.4-4.9.5-15.1 1.4-18.9-14.6 9.6-26.7 46.2-14.8 46.2 7.6 0 15-11.7 19.1-24z"/><path fill="#FFF" d="M554.5 2159.8c-15.7 0-29.4-16.7-29.4-26 0-33.1 22.5-85.9 39.6-85.9 2.7 0 24.5 13.4 25.3 23 1.6 19.1-23.4 51.2-39.1 33.7-6.1 17.5-9.3 34.5-5 37.7 7.5 5.5 46.6-35.8 52.8-49 8.6 9.1-30.1 66.5-44.2 66.5zm-1.3-60.8c15.9-4.4 22.5-26.6 21.2-35.8-5.3 0-14.4 17.2-21.2 35.8zM197 2084.5c-4.7.4-7.9.7-7.9.7s.6-10.5 4.3-10.9c.9-.1 3.6-.3 7.3-.7.7-1.9 1.3-3.8 2-5.6l3.5-9c10.3-28 29.7-56.2 36.9-58.6 5.2-1.8 24.5 16.8 24.7 21 .2 6.5-3.2 13.2-10.6 23.4-6.1-5.2-9.3-6.2-8.6-9.3.9-3.5 11.6-18 5.9-20.5-7.3.6-17.3 21.4-25.8 42l-3.9 9.2c-.6 1.7-1.1 3.3-1.7 5.1 6.4-.6 11.8-1.1 13.2-1.1 2.1 0 2.2 3.3 1.5 6.2-.7 2.4-1.9 4.6-3.1 4.8-1.5.1-7.8.7-15.4 1.4-8.9 26.1-18.2 52.6-29.1 93.2-2.5 9.2-3.5 16.7-3 23.2-8.7 1.1-15.3-3.9-18.7-11-.3-2.8 1.7-12.8 4-22 1.8-7.1 12.6-46.1 24.5-81.5z"/></svg>