<?xml version="1.0" encoding="utf-8"?>
<!-- Generator: Adobe Illustrator 18.1.1, SVG Export Plug-In . SVG Version: 6.00 Build 0)  -->
<svg version="1.1" id="Слой_1" xmlns="http://www.w3.org/2000/svg" xmlns:xlink="http://www.w3.org/1999/xlink" x="0px" y="0px"
	 viewBox="0 0 2000 2000" enable-background="new 0 0 2000 2000" xml:space="preserve">
<g display="none">
	<path fill="#FFFFFF" d="M1997.8,497.8c15.6,44.4-35.6,151.1-155.6,313.3c-15.6,22.2-40,53.3-66.7,91.1c-53.3,71.1-84.4,117.8-93.3,140
		c-11.1,28.9-6.7,57.8,15.6,86.7c11.1,15.6,40,44.4,84.4,86.7l0,0l0,0l0,0l2.2,2.2c97.8,93.3,164.4,171.1,197.8,235.6
		c2.2,4.4,4.4,8.9,6.7,13.3c2.2,4.4,4.4,15.6,6.7,28.9c2.2,13.3,2.2,26.7,0,35.6c-2.2,11.1-11.1,20-26.7,28.9
		c-15.6,8.9-35.6,13.3-62.2,13.3l-266.7,4.4c-15.6,4.4-35.6,2.2-57.8-4.4c-22.2-6.7-40-15.6-53.3-24.4l-20-13.3
		c-20-15.6-44.4-37.8-73.3-68.9c-26.7-31.1-51.1-57.8-71.1-82.2s-40-44.4-64.4-62.2c-22.2-17.8-42.2-22.2-57.8-15.6
		c-2.2,0-4.4,2.2-8.9,4.4c-4.4,2.2-8.9,6.7-17.8,15.6c-8.9,8.9-15.6,20-22.2,31.1c-6.7,13.3-13.3,31.1-17.8,55.6s-6.7,51.1-6.7,82.2
		c0,11.1-2.2,20-4.4,28.9c-2.2,8.9-4.4,15.6-8.9,20l-4.4,4.4c-13.3,13.3-31.1,22.2-55.6,24.4H977.8c-48.9,2.2-100-2.2-151.1-17.8
		c-51.1-15.6-97.8-33.3-137.8-55.6c-40-22.2-75.6-46.7-106.7-71.1c-33.3-24.4-57.8-44.4-73.3-62.2l-26.7-26.7
		c-6.7-6.7-15.6-17.8-28.9-31.1c-11.1-13.3-37.8-46.7-75.6-97.8c-37.8-51.1-73.3-104.4-111.1-160C231.1,993.3,188.9,920,140,826.7
		S46.7,637.8,4.4,535.6C2.2,528.9,0,520,0,511.1c0-8.9,0-13.3,2.2-17.8l4.4-4.4c11.1-15.6,31.1-22.2,60-22.2l284.4-2.2
		c8.9,2.2,15.6,4.4,24.4,6.7c6.7,2.2,13.3,6.7,15.6,8.9l4.4,2.2c11.1,8.9,20,20,24.4,33.3c13.3,35.6,28.9,73.3,48.9,111.1
		c17.8,37.8,33.3,66.7,42.2,86.7l15.6,31.1c20,42.2,40,80,57.8,111.1c17.8,31.1,35.6,55.6,51.1,73.3s28.9,31.1,42.2,40
		c13.3,8.9,26.7,15.6,35.6,15.6s20-2.2,28.9-4.4c2.2,0,2.2-2.2,4.4-4.4c2.2-2.2,6.7-11.1,13.3-24.4c6.7-13.3,11.1-28.9,13.3-51.1
		c2.2-20,6.7-48.9,8.9-86.7c4.4-37.8,4.4-82.2,0-133.3c-2.2-28.9-4.4-53.3-8.9-77.8s-8.9-40-15.6-48.9l-6.7-13.3
		c-17.8-24.4-46.7-40-88.9-46.7c-8.9-2.2-6.7-8.9,4.4-26.7c11.1-13.3,24.4-24.4,40-31.1c37.8-17.8,120-26.7,248.9-26.7
		c57.8,0,104.4,4.4,140,13.3c13.3,4.4,24.4,8.9,35.6,13.3c8.9,6.7,15.6,15.6,22.2,26.7c4.4,11.1,8.9,22.2,11.1,33.3
		c2.2,11.1,4.4,28.9,4.4,48.9s0,40,0,57.8s-2.2,44.4-2.2,75.6c0,31.1-2.2,60-2.2,88.9c0,8.9,0,22.2,0,44.4c0,22.2,0,40,0,51.1
		c0,11.1,2.2,26.7,4.4,42.2c2.2,17.8,6.7,31.1,11.1,42.2c6.7,11.1,13.3,20,24.4,26.7c4.4,2.2,11.1,2.2,17.8,4.4
		c6.7,2.2,15.6-2.2,26.7-11.1s24.4-22.2,40-37.8c15.6-15.6,33.3-40,53.3-71.1c22.2-33.3,44.4-71.1,71.1-115.6
		c42.2-73.3,77.8-153.3,111.1-240c2.2-6.7,6.7-13.3,11.1-17.8c4.4-4.4,8.9-8.9,11.1-11.1l4.4-2.2c2.2,0,2.2-2.2,4.4-2.2
		s6.7-2.2,13.3-2.2s13.3-2.2,20,0l302.2,0c26.7-4.4,48.9-2.2,66.7,2.2s28.9,11.1,33.3,17.8L1997.8,497.8z"/>
	<path fill="#FFFFFF" d="M1800,997.8c0,162.2-2.2,275.6-4.4,337.8c-6.7,148.9-48.9,262.2-128.9,344.4c-80,80-191.1,124.4-335.6,133.3
		c-60,4.4-171.1,4.4-331.1,4.4s-268.9-2.2-331.1-4.4c-144.4-6.7-255.6-51.1-335.6-133.3c-80-80-122.2-195.6-128.9-344.4
		c-2.2-62.2-4.4-173.3-4.4-337.8c0-162.2,2.2-275.6,4.4-337.8c6.7-148.9,48.9-262.2,128.9-344.4c80-80,191.1-124.4,335.6-133.3
		c60-4.4,171.1-4.4,331.1-4.4s268.9,2.2,331.1,4.4c144.4,6.7,255.6,51.1,335.6,133.3c80,80,122.2,195.6,128.9,344.4
		C1797.8,722.2,1800,835.6,1800,997.8z M1080,326.7c-48.9,0-75.6,0-80,0c-4.4,0-31.1,0-80,0c-48.9,0-84.4,0-108.9,0
		c-24.4,0-57.8,2.2-100,2.2c-42.2,2.2-77.8,4.4-106.7,11.1c-28.9,4.4-53.3,11.1-75.6,20c-35.6,13.3-64.4,35.6-91.1,62.2
		c-26.7,26.7-46.7,57.8-60,93.3c-6.7,20-13.3,46.7-20,75.6c-4.4,31.1-8.9,66.7-11.1,108.9s-2.2,77.8-2.2,102.2
		c0,26.7,0,62.2,0,113.3c0,48.9,0,75.6,0,82.2c0,4.4,0,31.1,0,82.2c0,48.9,0,86.7,0,113.3s2.2,60,2.2,102.2
		c2.2,42.2,4.4,80,11.1,108.9c4.4,31.1,11.1,55.6,20,75.6c13.3,35.6,33.3,66.7,60,93.3s57.8,46.7,91.1,62.2
		c20,8.9,44.4,13.3,75.6,20c28.9,4.4,64.4,8.9,106.7,11.1c42.2,2.2,75.6,2.2,100,2.2s62.2,0,108.9,0c48.9,0,75.6,0,80,0
		c4.4,0,31.1,0,80,0c48.9,0,84.4,0,108.9,0s57.8-2.2,100-2.2c42.2-2.2,77.8-4.4,106.7-11.1c28.9-4.4,53.3-11.1,75.6-20
		c35.6-13.3,64.4-35.6,91.1-62.2c26.7-26.7,46.7-57.8,60-93.3c6.7-20,13.3-46.7,20-75.6c4.4-31.1,8.9-66.7,11.1-108.9
		c2.2-42.2,2.2-77.8,2.2-102.2c0-26.7,0-62.2,0-113.3c0-48.9,0-75.6,0-82.2c0-4.4,0-31.1,0-82.2c0-48.9,0-86.7,0-113.3
		c0-26.7-2.2-60-2.2-102.2c-2.2-42.2-4.4-80-11.1-108.9s-11.1-55.6-20-75.6c-13.3-35.6-33.3-66.7-60-93.3
		c-26.7-26.7-57.8-46.7-91.1-62.2c-20-8.9-44.4-13.3-75.6-20c-28.9-4.4-64.4-8.9-106.7-11.1c-42.2-2.2-75.6-2.2-100-2.2
		C1164.4,326.7,1128.9,326.7,1080,326.7z M1291.1,700c80,82.2,120,180,120,297.8c0,115.6-40,215.6-120,297.8
		c-80,82.2-177.8,122.2-291.1,122.2c-113.3,0-211.1-40-291.1-122.2c-80-82.2-120-180-120-297.8c0-115.6,40-215.6,120-297.8
		c80-80,177.8-122.2,291.1-122.2C1113.3,577.8,1211.1,620,1291.1,700z M1188.9,1191.1c51.1-53.3,77.8-117.8,77.8-193.3
		c0-75.6-26.7-140-77.8-193.3c-51.1-53.3-115.6-80-188.9-80s-135.6,26.7-188.9,80c-51.1,53.3-77.8,117.8-77.8,193.3
		c0,75.6,26.7,140,77.8,193.3s115.6,80,188.9,80S1135.6,1244.4,1188.9,1191.1z M1495.6,491.1c17.8,20,28.9,42.2,28.9,68.9
		c0,26.7-8.9,51.1-28.9,68.9c-17.8,20-42.2,28.9-66.7,28.9c-26.7,0-48.9-8.9-66.7-28.9s-28.9-42.2-28.9-68.9
		c0-26.7,8.9-51.1,28.9-68.9c17.8-20,42.2-28.9,66.7-28.9C1453.3,462.2,1475.6,473.3,1495.6,491.1z"/>
	<path fill="#FFFFFF" d="M1448.9,124.4v282.2h-164.4c-60,0-100,13.3-120,37.8c-20,26.7-31.1,64.4-31.1,115.6v202.2h304.4l-40,315.6h-264.4v808.9
		H815.6v-811.1H551.1V760h264.4V528.9c0-133.3,35.6-235.6,108.9-306.7c71.1-73.3,168.9-108.9,288.9-108.9
		C1315.6,111.1,1393.3,115.6,1448.9,124.4z"/>
	<path fill="#FFFFFF" d="M1820,477.8c-46.7,68.9-102.2,128.9-168.9,177.8c0,8.9,0,24.4,0,44.4c0,93.3-13.3,184.4-40,277.8
		c-26.7,91.1-66.7,180-120,264.4c-53.3,84.4-117.8,160-191.1,224.4c-73.3,64.4-164.4,117.8-268.9,155.6
		C926.7,1660,813.3,1680,695.6,1680c-188.9,0-360-51.1-515.6-155.6c24.4,2.2,51.1,4.4,82.2,4.4c155.6,0,295.6-48.9,417.8-146.7
		c-73.3-2.2-137.8-24.4-195.6-68.9s-97.8-102.2-117.8-171.1c22.2,4.4,44.4,4.4,64.4,4.4c28.9,0,60-4.4,88.9-11.1
		c-77.8-15.6-142.2-55.6-193.3-120c-51.1-62.2-75.6-135.6-75.6-220v-4.4c46.7,26.7,97.8,42.2,151.1,44.4
		c-46.7-31.1-82.2-71.1-108.9-122.2c-26.7-51.1-40-104.4-40-164.4c0-62.2,15.6-120,46.7-173.3c84.4,106.7,186.7,191.1,306.7,253.3
		c120,64.4,248.9,100,386.7,106.7c-6.7-26.7-8.9-53.3-8.9-80c0-95.6,33.3-175.6,97.8-244.4s140-95.6,233.3-95.6
		c97.8,0,180,35.6,246.7,108.9c75.6-15.6,146.7-42.2,213.3-82.2c-26.7,82.2-75.6,144.4-148.9,188.9
		C1691.1,524.4,1755.6,506.7,1820,477.8z"/>
	<path fill="#FFFFFF" display="inline" d="M708.9,237.8c97.8-42.2,197.8-64.4,304.4-64.4s206.7,22.2,304.4,64.4c97.8,42.2,180,100,251.1,171.1
		c71.1,71.1,126.7,157.8,166.7,255.6c42.2,100,64.4,204.4,64.4,313.3s-20,213.3-62.2,311.1c-42.2,100-97.8,184.4-166.7,255.6
		c-71.1,71.1-153.3,128.9-251.1,171.1c-97.8,42.2-197.8,64.4-304.4,64.4c-135.6,0-262.2-33.3-380-100L200,1824.4l142.2-431.1
		c-75.6-128.9-113.3-266.7-113.3-415.6c0-108.9,20-213.3,62.2-311.1c42.2-100,97.8-184.4,166.7-255.6
		C528.9,337.8,613.3,280,708.9,237.8z M1015.6,1646.7c88.9,0,173.3-17.8,253.3-53.3c80-35.6,151.1-82.2,208.9-142.2
		c57.8-60,104.4-131.1,140-213.3c35.6-82.2,51.1-168.9,51.1-260s-17.8-177.8-51.1-260c-35.6-82.2-82.2-153.3-140-213.3
		s-128.9-106.7-208.9-142.2s-164.4-53.3-253.3-53.3s-173.3,17.8-253.3,53.3s-151.1,82.2-208.9,142.2c-57.8,60-104.4,131.1-140,213.3
		C377.8,800,360,886.7,360,977.8c0,144.4,42.2,275.6,124.4,393.3L402.2,1620l251.1-82.2C764.4,1608.9,884.4,1646.7,1015.6,1646.7z
		 M1171.1,1133.3c26.7-35.6,44.4-51.1,53.3-51.1s42.2,15.6,102.2,46.7c57.8,31.1,88.9,51.1,93.3,55.6c2.2,4.4,2.2,8.9,2.2,15.6
		c0,24.4-6.7,51.1-17.8,80c-11.1,26.7-35.6,51.1-73.3,68.9c-37.8,17.8-73.3,28.9-106.7,28.9c-40,0-104.4-22.2-197.8-66.7
		c-68.9-31.1-126.7-73.3-177.8-126.7c-48.9-51.1-102.2-117.8-153.3-197.8C646.7,911.1,620,842.2,622.2,780v-8.9
		c2.2-64.4,26.7-120,77.8-168.9c15.6-15.6,35.6-24.4,53.3-24.4c4.4,0,11.1,0,17.8,2.2c8.9,0,15.6,2.2,20,2.2
		c13.3,0,22.2,2.2,26.7,6.7s11.1,13.3,15.6,28.9c4.4,13.3,17.8,44.4,33.3,93.3c17.8,48.9,26.7,75.6,26.7,80
		c0,15.6-11.1,35.6-35.6,62.2s-35.6,42.2-35.6,48.9c0,4.4,2.2,11.1,4.4,15.6c24.4,51.1,60,100,106.7,146.7
		c37.8,37.8,91.1,73.3,157.8,106.7c8.9,4.4,15.6,6.7,22.2,6.7C1126.7,1184.4,1144.4,1166.7,1171.1,1133.3z"/>
</g>
<g>
	<path fill="#FFFFFF" d="M1750,1371.5c0,157.9-8.8,276-26.3,354.2c-9.5,39.8-29,73.2-58.7,100.2c-29.7,27-64.1,42.5-103.2,46.6
		c-124.2,14.2-311.4,21.3-561.7,21.3c-250.3,0-437.6-7.1-561.7-21.3c-39.1-4-73.7-19.6-103.7-46.6c-30-27-49.4-60.4-58.2-100.2
		c-17.6-75.6-26.3-193.7-26.3-354.2c0-157.9,8.8-276,26.3-354.3c9.4-39.8,29-73.2,58.7-100.2c29.7-27,64.4-42.8,104.2-47.6
		c123.5-13.5,310.4-20.2,560.7-20.2c250.3,0,437.6,6.8,561.7,20.2c39.1,4.7,73.7,20.6,103.7,47.6c30,27,49.4,60.4,58.2,100.2
		C1741.2,1092.8,1750,1210.9,1750,1371.5z M569.8,1119.5h108.3v-95.1H362.3v95.1h106.3v575.9h101.2V1119.5z M739.9,80h103.2
		L720.6,483.8v274.3H619.4V483.8c-9.5-49.9-30-121.5-61.7-214.6c-25-69.5-46.9-132.6-65.8-189.3h107.3l71.9,266.2L739.9,80z
		 M861.3,1695.4h90.1v-500h-90.1V1578c-20.2,28.3-39.5,42.5-57.7,42.5c-12.1,0-19.2-7.1-21.3-21.3c-0.7-2-1-13.8-1-35.4v-368.4
		h-90.1v395.7c0,33.1,2.7,57.7,8.1,73.9c8.1,25,27.7,37.4,58.7,37.4c32.4,0,66.8-20.6,103.2-61.7V1695.4z M1114.4,417v177.1
		c0,54.7-9.5,94.5-28.3,119.4c-25,34.4-60.7,51.6-107.3,51.6c-45.2,0-80.6-17.2-106.3-51.6c-18.9-25.6-28.3-65.4-28.3-119.4V417
		c0-54,9.4-93.5,28.3-118.4c25.6-34.4,61.1-51.6,106.3-51.6c46.6,0,82.3,17.2,107.3,51.6C1104.9,323.6,1114.4,363.1,1114.4,417z
		 M1022.3,611.4V398.8c0-46.6-14.5-69.8-43.5-69.8c-29,0-43.5,23.3-43.5,69.8v212.6c0,47.2,14.5,70.8,43.5,70.8
		C1007.7,682.2,1022.3,658.6,1022.3,611.4z M1295.5,1545.6v-199.4c0-49.2-3-82.7-9.1-100.2c-11.5-37.8-35.4-56.7-71.9-56.7
		c-33.7,0-65.1,18.2-94.1,54.7v-219.6h-90.1v671.1h90.1v-48.6c30.4,37.1,61.7,55.7,94.1,55.7c36.4,0,60.4-18.6,71.9-55.7
		C1292.5,1628.6,1295.5,1594.8,1295.5,1545.6z M1205.5,1339.1v213.6c0,45.2-13.2,67.8-39.5,67.8c-15.5,0-30.7-7.4-45.5-22.3v-304.7
		c14.8-14.8,30-22.3,45.5-22.3C1192.3,1271.3,1205.5,1293.9,1205.5,1339.1z M1453.4,253.1v505.1h-92.1v-55.7
		c-35.8,41.8-70.5,62.8-104.2,62.8c-31,0-51-12.5-59.7-37.5c-5.4-16.2-8.1-41.5-8.1-75.9V253.1h92.1v371.5c0,22.3,0.3,34.1,1,35.4
		c2,14.8,9.1,22.3,21.3,22.3c18.2,0,37.4-14.5,57.7-43.5V253.1H1453.4z M1637.7,1535.5v-13.2h-92.1c0,34.4-0.7,55-2,61.7
		c-4.7,24.3-18.2,36.4-40.5,36.4c-31,0-46.6-23.3-46.6-69.8v-88.1h181.2v-104.3c0-53.3-9.1-92.4-27.3-117.4
		c-26.3-34.4-62.1-51.6-107.3-51.6c-45.9,0-82,17.2-108.3,51.6c-18.9,25-28.3,64.1-28.3,117.4v175.1c0,53.3,9.8,92.5,29.4,117.4
		c26.3,34.4,62.8,51.6,109.3,51.6c48.6,0,85-17.9,109.3-53.6c12.1-18.2,19.2-36.4,21.3-54.7
		C1637,1588.1,1637.7,1568.5,1637.7,1535.5z M1547.6,1340.1v46.6h-91.1v-46.6c0-45.9,15.2-68.8,45.5-68.8
		S1547.6,1294.2,1547.6,1340.1z"/>
</g>
</svg>
