<?xml version="1.0" encoding="utf-8"?>
<!-- Generator: Adobe Illustrator 18.1.1, SVG Export Plug-In . SVG Version: 6.00 Build 0)  -->
<svg version="1.1" id="Слой_1" xmlns="http://www.w3.org/2000/svg" xmlns:xlink="http://www.w3.org/1999/xlink" x="0px" y="0px"
	 viewBox="0 0 90 80" enable-background="new 0 0 90 80" xml:space="preserve">
<g>
	<path display="none" d="M89.9,17.4c0.7,2-1.6,6.8-7,14.1c-0.7,1-1.8,2.4-3,4.1c-2.4,3.2-3.8,5.3-4.2,6.3c-0.5,1.3-0.3,2.6,0.7,3.9
		c0.5,0.7,1.8,2,3.8,3.9h0l0,0l0,0l0.1,0.1c4.4,4.2,7.4,7.7,8.9,10.6c0.1,0.2,0.2,0.4,0.3,0.6c0.1,0.2,0.2,0.7,0.3,1.3
		c0.1,0.6,0.1,1.2,0,1.6c-0.1,0.5-0.5,0.9-1.2,1.3c-0.7,0.4-1.6,0.6-2.8,0.6l-12,0.2c-0.7,0.2-1.6,0.1-2.6-0.2
		c-1-0.3-1.8-0.7-2.4-1.1l-0.9-0.6c-0.9-0.7-2-1.7-3.3-3.1c-1.2-1.4-2.3-2.6-3.2-3.7c-0.9-1.1-1.8-2-2.9-2.8c-1-0.8-1.9-1-2.6-0.7
		c-0.1,0-0.2,0.1-0.4,0.2c-0.2,0.1-0.4,0.3-0.8,0.7c-0.4,0.4-0.7,0.9-1,1.4c-0.3,0.6-0.6,1.4-0.8,2.5c-0.2,1.1-0.3,2.3-0.3,3.7
		c0,0.5-0.1,0.9-0.2,1.3c-0.1,0.4-0.2,0.7-0.4,0.9l-0.2,0.2c-0.6,0.6-1.4,1-2.5,1.1H44c-2.2,0.1-4.5-0.1-6.8-0.8
		c-2.3-0.7-4.4-1.5-6.2-2.5c-1.8-1-3.4-2.1-4.8-3.2c-1.5-1.1-2.6-2-3.3-2.8l-1.2-1.2c-0.3-0.3-0.7-0.8-1.3-1.4
		c-0.5-0.6-1.7-2.1-3.4-4.4c-1.7-2.3-3.3-4.7-5-7.2c-1.6-2.6-3.5-5.9-5.7-10.1s-4.2-8.5-6.1-13.1C0.1,18.8,0,18.4,0,18
		c0-0.4,0-0.6,0.1-0.8L0.3,17C0.8,16.3,1.7,16,3,16l12.8-0.1c0.4,0.1,0.7,0.2,1.1,0.3c0.3,0.1,0.6,0.3,0.7,0.4l0.2,0.1
		c0.5,0.4,0.9,0.9,1.1,1.5c0.6,1.6,1.3,3.3,2.2,5c0.8,1.7,1.5,3,1.9,3.9l0.7,1.4c0.9,1.9,1.8,3.6,2.6,5c0.8,1.4,1.6,2.5,2.3,3.3
		c0.7,0.8,1.3,1.4,1.9,1.8c0.6,0.4,1.2,0.7,1.6,0.7c0.4,0,0.9-0.1,1.3-0.2c0.1,0,0.1-0.1,0.2-0.2c0.1-0.1,0.3-0.5,0.6-1.1
		c0.3-0.6,0.5-1.3,0.6-2.3c0.1-0.9,0.3-2.2,0.4-3.9c0.2-1.7,0.2-3.7,0-6c-0.1-1.3-0.2-2.4-0.4-3.5c-0.2-1.1-0.4-1.8-0.7-2.2
		l-0.3-0.6c-0.8-1.1-2.1-1.8-4-2.1c-0.4-0.1-0.3-0.4,0.2-1.2c0.5-0.6,1.1-1.1,1.8-1.4c1.7-0.8,5.4-1.2,11.2-1.2
		c2.6,0,4.7,0.2,6.3,0.6c0.6,0.2,1.1,0.4,1.6,0.6c0.4,0.3,0.7,0.7,1,1.2c0.2,0.5,0.4,1,0.5,1.5c0.1,0.5,0.2,1.3,0.2,2.2
		c0,0.9,0,1.8,0,2.6c0,0.8-0.1,2-0.1,3.4c0,1.4-0.1,2.7-0.1,4c0,0.4,0,1,0,2c0,1,0,1.8,0,2.3c0,0.5,0.1,1.2,0.2,1.9
		c0.1,0.8,0.3,1.4,0.5,1.9c0.3,0.5,0.6,0.9,1.1,1.2c0.2,0.1,0.5,0.1,0.8,0.2c0.3,0.1,0.7-0.1,1.2-0.5c0.5-0.4,1.1-1,1.8-1.7
		c0.7-0.7,1.5-1.8,2.4-3.2c1-1.5,2-3.2,3.2-5.2c1.9-3.3,3.5-6.9,5-10.8c0.1-0.3,0.3-0.6,0.5-0.8c0.2-0.2,0.4-0.4,0.5-0.5l0.2-0.1
		c0.1,0,0.1-0.1,0.2-0.1c0.1,0,0.3-0.1,0.6-0.1c0.3,0,0.6-0.1,0.9,0L85.1,16c1.2-0.2,2.2-0.1,3,0.1c0.8,0.2,1.3,0.5,1.5,0.8
		L89.9,17.4z"/>
	<path display="none" d="M81,39.9c0,7.3-0.1,12.4-0.2,15.2c-0.3,6.7-2.2,11.8-5.8,15.5c-3.6,3.6-8.6,5.6-15.1,6
		c-2.7,0.2-7.7,0.2-14.9,0.2c-7.2,0-12.1-0.1-14.9-0.2c-6.5-0.3-11.5-2.3-15.1-6c-3.6-3.6-5.5-8.8-5.8-15.5C9.1,52.3,9,47.3,9,39.9
		c0-7.3,0.1-12.4,0.2-15.2c0.3-6.7,2.2-11.8,5.8-15.5c3.6-3.6,8.6-5.6,15.1-6c2.7-0.2,7.7-0.2,14.9-0.2c7.2,0,12.1,0.1,14.9,0.2
		c6.5,0.3,11.5,2.3,15.1,6c3.6,3.6,5.5,8.8,5.8,15.5C80.9,27.5,81,32.6,81,39.9z M48.6,9.7c-2.2,0-3.4,0-3.6,0c-0.2,0-1.4,0-3.6,0
		c-2.2,0-3.8,0-4.9,0c-1.1,0-2.6,0.1-4.5,0.1c-1.9,0.1-3.5,0.2-4.8,0.5c-1.3,0.2-2.4,0.5-3.4,0.9c-1.6,0.6-2.9,1.6-4.1,2.8
		c-1.2,1.2-2.1,2.6-2.7,4.2c-0.3,0.9-0.6,2.1-0.9,3.4c-0.2,1.4-0.4,3-0.5,4.9c-0.1,1.9-0.1,3.5-0.1,4.6c0,1.2,0,2.8,0,5.1
		c0,2.2,0,3.4,0,3.7c0,0.2,0,1.4,0,3.7c0,2.2,0,3.9,0,5.1c0,1.2,0.1,2.7,0.1,4.6c0.1,1.9,0.2,3.6,0.5,4.9c0.2,1.4,0.5,2.5,0.9,3.4
		c0.6,1.6,1.5,3,2.7,4.2c1.2,1.2,2.6,2.1,4.1,2.8c0.9,0.4,2,0.6,3.4,0.9c1.3,0.2,2.9,0.4,4.8,0.5c1.9,0.1,3.4,0.1,4.5,0.1
		c1.1,0,2.8,0,4.9,0c2.2,0,3.4,0,3.6,0c0.2,0,1.4,0,3.6,0c2.2,0,3.8,0,4.9,0c1.1,0,2.6-0.1,4.5-0.1c1.9-0.1,3.5-0.2,4.8-0.5
		c1.3-0.2,2.4-0.5,3.4-0.9c1.6-0.6,2.9-1.6,4.1-2.8c1.2-1.2,2.1-2.6,2.7-4.2c0.3-0.9,0.6-2.1,0.9-3.4c0.2-1.4,0.4-3,0.5-4.9
		c0.1-1.9,0.1-3.5,0.1-4.6c0-1.2,0-2.8,0-5.1c0-2.2,0-3.4,0-3.7c0-0.2,0-1.4,0-3.7c0-2.2,0-3.9,0-5.1c0-1.2-0.1-2.7-0.1-4.6
		c-0.1-1.9-0.2-3.6-0.5-4.9s-0.5-2.5-0.9-3.4c-0.6-1.6-1.5-3-2.7-4.2c-1.2-1.2-2.6-2.1-4.1-2.8c-0.9-0.4-2-0.6-3.4-0.9
		c-1.3-0.2-2.9-0.4-4.8-0.5c-1.9-0.1-3.4-0.1-4.5-0.1C52.4,9.7,50.8,9.7,48.6,9.7z M58.1,26.5c3.6,3.7,5.4,8.1,5.4,13.4
		c0,5.2-1.8,9.7-5.4,13.4c-3.6,3.7-8,5.5-13.1,5.5c-5.1,0-9.5-1.8-13.1-5.5c-3.6-3.7-5.4-8.1-5.4-13.4c0-5.2,1.8-9.7,5.4-13.4
		C35.5,22.9,39.9,21,45,21C50.1,21,54.5,22.9,58.1,26.5z M53.5,48.6c2.3-2.4,3.5-5.3,3.5-8.7c0-3.4-1.2-6.3-3.5-8.7
		c-2.3-2.4-5.2-3.6-8.5-3.6c-3.3,0-6.1,1.2-8.5,3.6c-2.3,2.4-3.5,5.3-3.5,8.7c0,3.4,1.2,6.3,3.5,8.7c2.3,2.4,5.2,3.6,8.5,3.6
		C48.3,52.2,51.1,51,53.5,48.6z M67.3,17.1c0.8,0.9,1.3,1.9,1.3,3.1c0,1.2-0.4,2.3-1.3,3.1c-0.8,0.9-1.9,1.3-3,1.3
		c-1.2,0-2.2-0.4-3-1.3c-0.8-0.9-1.3-1.9-1.3-3.1c0-1.2,0.4-2.3,1.3-3.1c0.8-0.9,1.9-1.3,3-1.3C65.4,15.8,66.4,16.3,67.3,17.1z"/>
	<path fill="#FFFFFF" d="M65.2,0.6v12.7h-7.4c-2.7,0-4.5,0.6-5.4,1.7c-0.9,1.2-1.4,2.9-1.4,5.2v9.1h13.7l-1.8,14.2H51v36.4H36.7V43.4H24.8V29.2
		h11.9V18.8c0-6,1.6-10.6,4.9-13.8c3.2-3.3,7.6-4.9,13-4.9C59.2,0,62.7,0.2,65.2,0.6z"/>
	<path display="none" d="M81.9,16.5c-2.1,3.1-4.6,5.8-7.6,8c0,0.4,0,1.1,0,2c0,4.2-0.6,8.3-1.8,12.5c-1.2,4.1-3,8.1-5.4,11.9
		c-2.4,3.8-5.3,7.2-8.6,10.1c-3.3,2.9-7.4,5.3-12.1,7c-4.7,1.7-9.8,2.6-15.1,2.6c-8.5,0-16.2-2.3-23.2-7c1.1,0.1,2.3,0.2,3.7,0.2
		c7,0,13.3-2.2,18.8-6.6c-3.3-0.1-6.2-1.1-8.8-3.1c-2.6-2-4.4-4.6-5.3-7.7c1,0.2,2,0.2,2.9,0.2c1.3,0,2.7-0.2,4-0.5
		c-3.5-0.7-6.4-2.5-8.7-5.4c-2.3-2.8-3.4-6.1-3.4-9.9v-0.2c2.1,1.2,4.4,1.9,6.8,2c-2.1-1.4-3.7-3.2-4.9-5.5
		c-1.2-2.3-1.8-4.7-1.8-7.4c0-2.8,0.7-5.4,2.1-7.8c3.8,4.8,8.4,8.6,13.8,11.4c5.4,2.9,11.2,4.5,17.4,4.8c-0.3-1.2-0.4-2.4-0.4-3.6
		c0-4.3,1.5-7.9,4.4-11S55,9.2,59.2,9.2c4.4,0,8.1,1.6,11.1,4.9c3.4-0.7,6.6-1.9,9.6-3.7c-1.2,3.7-3.4,6.5-6.7,8.5
		C76.1,18.6,79,17.8,81.9,16.5z"/>
	<path display="none" d="M31.9,5.7c4.4-1.9,8.9-2.9,13.7-2.9s9.3,1,13.7,2.9c4.4,1.9,8.1,4.5,11.3,7.7c3.2,3.2,5.7,7.1,7.5,11.5
		C80,29.4,81,34.1,81,39s-0.9,9.6-2.8,14c-1.9,4.5-4.4,8.3-7.5,11.5c-3.2,3.2-6.9,5.8-11.3,7.7c-4.4,1.9-8.9,2.9-13.7,2.9
		c-6.1,0-11.8-1.5-17.1-4.5L9,77.1l6.4-19.4C12,51.9,10.3,45.7,10.3,39c0-4.9,0.9-9.6,2.8-14c1.9-4.5,4.4-8.3,7.5-11.5
		C23.8,10.2,27.6,7.6,31.9,5.7z M45.7,69.1c4,0,7.8-0.8,11.4-2.4c3.6-1.6,6.8-3.7,9.4-6.4c2.6-2.7,4.7-5.9,6.3-9.6
		c1.6-3.7,2.3-7.6,2.3-11.7c0-4.1-0.8-8-2.3-11.7c-1.6-3.7-3.7-6.9-6.3-9.6c-2.6-2.7-5.8-4.8-9.4-6.4c-3.6-1.6-7.4-2.4-11.4-2.4
		c-4,0-7.8,0.8-11.4,2.4c-3.6,1.6-6.8,3.7-9.4,6.4c-2.6,2.7-4.7,5.9-6.3,9.6C17,31,16.2,34.9,16.2,39c0,6.5,1.9,12.4,5.6,17.7
		l-3.7,11.2l11.3-3.7C34.4,67.4,39.8,69.1,45.7,69.1z M52.7,46c1.2-1.6,2-2.3,2.4-2.3c0.4,0,1.9,0.7,4.6,2.1c2.6,1.4,4,2.3,4.2,2.5
		C64,48.5,64,48.7,64,49c0,1.1-0.3,2.3-0.8,3.6c-0.5,1.2-1.6,2.3-3.3,3.1c-1.7,0.8-3.3,1.3-4.8,1.3c-1.8,0-4.7-1-8.9-3
		c-3.1-1.4-5.7-3.3-8-5.7c-2.2-2.3-4.6-5.3-6.9-8.9c-2.2-3.4-3.4-6.5-3.3-9.3v-0.4c0.1-2.9,1.2-5.4,3.5-7.6c0.7-0.7,1.6-1.1,2.4-1.1
		c0.2,0,0.5,0,0.8,0.1c0.4,0,0.7,0.1,0.9,0.1c0.6,0,1,0.1,1.2,0.3c0.2,0.2,0.5,0.6,0.7,1.3c0.2,0.6,0.8,2,1.5,4.2
		c0.8,2.2,1.2,3.4,1.2,3.6c0,0.7-0.5,1.6-1.6,2.8c-1.1,1.2-1.6,1.9-1.6,2.2c0,0.2,0.1,0.5,0.2,0.7c1.1,2.3,2.7,4.5,4.8,6.6
		c1.7,1.7,4.1,3.3,7.1,4.8c0.4,0.2,0.7,0.3,1,0.3C50.7,48.3,51.5,47.5,52.7,46z"/>
</g>
<g>
</g>
<g>
</g>
<g>
</g>
<g>
</g>
<g>
</g>
</svg>
